<svg width="600" height="400" viewBox="0 0 600 400" fill="none" xmlns="http://www.w3.org/2000/svg">
<g clip-path="url(#clip0_827:2)">
<rect width="600" height="400" fill="white"/>
<path d="M600 42C600 40.8954 599.105 40 598 40H2C0.895429 40 0 40.8954 0 42V398C0 399.105 0.895431 400 2 400H598C599.105 400 600 399.105 600 398V42Z" fill="#CFCFCF" fill-opacity="0.1"/>
<path d="M658.538 589.203C658.308 590.283 657.246 590.972 656.165 590.742L-91.044 431.414C-92.1243 431.184 -92.8133 430.121 -92.5829 429.041L-29.0314 130.999C-28.6478 129.2 -26.1874 128.757 -25.1895 130.302C-16.1496 144.297 14.6502 186.987 58.6969 195.262C111.549 205.191 138.687 176.127 159.846 165.894C181.005 155.661 226.344 146.438 263.859 159.924C305.079 174.743 315.291 224.491 354.994 245.037C389.669 262.981 410.751 270.552 450.136 265.324C488.325 260.256 514.155 215.083 550.537 221.053C589.49 227.444 593.12 292.701 631.031 303.896C659.219 312.221 706.169 293.428 719.535 287.643C721.052 286.986 722.692 288.335 722.348 289.951L658.538 589.203Z" fill="#CFCFCF" fill-opacity="0.29"/>
<path d="M-70.6683 494.191C-70.5081 495.284 -69.4923 496.04 -68.3994 495.88L772.478 372.641C773.571 372.481 774.327 371.465 774.167 370.372L754.182 234.01C753.97 232.564 752.349 231.791 751.099 232.548C740.481 238.986 698.875 262.54 647.913 269.487C588.687 277.56 563.894 265.41 542.519 261.866C521.144 258.321 473.255 256.784 430.157 265.585C382.803 275.256 363.495 299.63 316.852 311.937C276.116 322.685 251.899 327.627 209.84 327.621C169.058 327.614 148.339 307.698 107.712 312.843C64.2131 318.351 49.5278 349.707 6.37497 357.44C-26.5761 363.346 -76.3887 356.859 -88.4225 355.13C-89.7578 354.938 -90.9091 356.086 -90.7134 357.421L-70.6683 494.191Z" fill="#CFCFCF" fill-opacity="0.4"/>
<path d="M120 95.5H588C588.828 95.5 589.5 96.1716 589.5 97V219C589.5 219.828 588.828 220.5 588 220.5H120C119.172 220.5 118.5 219.828 118.5 219V97C118.5 96.1716 119.172 95.5 120 95.5Z" fill="white" fill-opacity="0.6" stroke="white"/>
<path d="M120 367.5H588C588.828 367.5 589.5 368.172 589.5 369V379C589.5 379.828 588.828 380.5 588 380.5H120C119.172 380.5 118.5 379.828 118.5 379V369C118.5 368.172 119.172 367.5 120 367.5Z" fill="white" fill-opacity="0.6" stroke="white"/>
<rect x="118" y="55" width="26.8793" height="7" fill="#D3DBDF"/>
<rect x="118" y="71" width="210.733" height="2" fill="#D3DBDF"/>
<rect x="551.294" y="60" width="38.7062" height="9" rx="2" fill="#D3DBDF"/>
<rect x="497.535" y="60" width="38.7062" height="9" rx="2" fill="#D3DBDF"/>
<path d="M600 35H0V40H600V35Z" fill="#D3DBDF"/>
<rect opacity="0.5" x="118" y="12" width="114" height="13" rx="3" fill="#A7B2B7"/>
<rect opacity="0.5" x="43" y="12" width="57" height="13" rx="3" fill="#A7B2B7"/>
<rect x="49" y="18" width="35" height="2" fill="white"/>
<path d="M92.5 21L90.3349 17.25L94.6651 17.25L92.5 21Z" fill="white"/>
<circle cx="23" cy="18" r="6" fill="#A7B2B7"/>
<circle cx="580" cy="18" r="10" fill="#A7B2B7"/>
<circle cx="556" cy="18" r="4" fill="#A7B2B7"/>
<circle cx="536" cy="18" r="4" fill="#A7B2B7"/>
<circle cx="516" cy="18" r="4" fill="#A7B2B7"/>
<path d="M23 58C23 59.6569 21.6569 61 20 61V61C18.3431 61 17 59.6569 17 58V58C17 56.3431 18.3431 55 20 55V55C21.6569 55 23 56.3431 23 58V58Z" fill="#D3DBDF"/>
<rect x="30" y="57" width="62" height="2" fill="#D3DBDF"/>
<path d="M23 78C23 79.6569 21.6569 81 20 81V81C18.3431 81 17 79.6569 17 78V78C17 76.3431 18.3431 75 20 75V75C21.6569 75 23 76.3431 23 78V78Z" fill="#D3DBDF"/>
<rect x="30" y="77" width="62" height="2" fill="#D3DBDF"/>
<path d="M23 98C23 99.6569 21.6569 101 20 101V101C18.3431 101 17 99.6569 17 98V98C17 96.3431 18.3431 95 20 95V95C21.6569 95 23 96.3431 23 98V98Z" fill="#D3DBDF"/>
<rect x="30" y="97" width="62" height="2" fill="#D3DBDF"/>
<path d="M23 118C23 119.657 21.6569 121 20 121V121C18.3431 121 17 119.657 17 118V118C17 116.343 18.3431 115 20 115V115C21.6569 115 23 116.343 23 118V118Z" fill="#D3DBDF"/>
<rect x="30" y="117" width="62" height="2" fill="#D3DBDF"/>
<path d="M23 138C23 139.657 21.6569 141 20 141V141C18.3431 141 17 139.657 17 138V138C17 136.343 18.3431 135 20 135V135C21.6569 135 23 136.343 23 138V138Z" fill="#D3DBDF"/>
<rect x="30" y="137" width="62" height="2" fill="#D3DBDF"/>
<path d="M23 158C23 159.657 21.6569 161 20 161V161C18.3431 161 17 159.657 17 158V158C17 156.343 18.3431 155 20 155V155C21.6569 155 23 156.343 23 158V158Z" fill="#D3DBDF"/>
<rect x="30" y="157" width="62" height="2" fill="#D3DBDF"/>
<path d="M23 178C23 179.657 21.6569 181 20 181V181C18.3431 181 17 179.657 17 178V178C17 176.343 18.3431 175 20 175V175C21.6569 175 23 176.343 23 178V178Z" fill="#D3DBDF"/>
<rect x="30" y="177" width="62" height="2" fill="#D3DBDF"/>
<path d="M23 198C23 199.657 21.6569 201 20 201V201C18.3431 201 17 199.657 17 198V198C17 196.343 18.3431 195 20 195V195C21.6569 195 23 196.343 23 198V198Z" fill="#D3DBDF"/>
<rect x="30" y="197" width="62" height="2" fill="#D3DBDF"/>
<path d="M23 218C23 219.657 21.6569 221 20 221V221C18.3431 221 17 219.657 17 218V218C17 216.343 18.3431 215 20 215V215C21.6569 215 23 216.343 23 218V218Z" fill="#D3DBDF"/>
<rect x="30" y="217" width="62" height="2" fill="#D3DBDF"/>
<path d="M23 376C23 377.657 21.6569 379 20 379V379C18.3431 379 17 377.657 17 376V376C17 374.343 18.3431 373 20 373V373C21.6569 373 23 374.343 23 376V376Z" fill="white"/>
<rect x="30" y="375" width="62" height="2" fill="white"/>
</g>
<defs>
<clipPath id="clip0_827:2">
<rect width="600" height="400" fill="white"/>
</clipPath>
</defs>
</svg>
