<svg width="600" height="400" viewBox="0 0 600 400" fill="none" xmlns="http://www.w3.org/2000/svg">
<rect width="600" height="400" fill="white"/>
<path d="M600 2C600 0.89543 599.105 0 598 0H2C0.895429 0 0 0.895431 0 2V115.62C0 117.14 1.62371 118.144 2.99037 117.477C12.3768 112.896 42.7083 99.5858 77.5 100C119.5 100.5 135.5 113.5 150 119C164.5 124.5 197.639 131.547 228.5 129.5C262.409 127.251 278.317 109.506 312 105C341.418 101.065 358.759 99.9174 388 105C416.353 109.928 428.729 128.833 457.5 129.5C488.304 130.214 501.709 106.161 532.5 105C555.251 104.142 587.796 114.748 597.299 118.041C598.615 118.497 600 117.521 600 116.128V2Z" fill="#D3DBDF"/>
<path d="M0 2C0 0.89543 0.895431 0 2 0H598C599.105 0 600 0.895431 600 2V115.62C600 117.14 598.376 118.144 597.01 117.477C587.623 112.896 557.292 99.5858 522.5 100C480.5 100.5 464.5 113.5 450 119C435.5 124.5 402.361 131.547 371.5 129.5C337.591 127.251 321.683 109.506 288 105C258.582 101.065 241.241 99.9174 212 105C183.647 109.928 171.271 128.833 142.5 129.5C111.696 130.214 98.2906 106.161 67.5 105C44.7494 104.142 12.2044 114.748 2.70112 118.041C1.38536 118.497 0 117.521 0 116.128V2Z" fill="#D3DBDF" fill-opacity="0.4"/>
<path d="M525 120C525 118.895 524.105 118 523 118H74C72.8954 118 72 118.895 72 120V367C72 368.105 72.8954 369 74 369H523C524.105 369 525 368.105 525 367V120Z" fill="#F3F3F3"/>
<rect opacity="0.5" x="101" y="19" width="292" height="13" rx="3" fill="white"/>
<circle cx="78" cy="25" r="6" fill="white"/>
<circle cx="471" cy="25" r="4" fill="white"/>
<circle cx="491" cy="25" r="6" fill="white"/>
<circle cx="451" cy="25" r="4" fill="white"/>
<circle cx="431" cy="25" r="4" fill="white"/>
<rect x="513" y="19" width="12" height="2" fill="white"/>
<rect x="513" y="29" width="12" height="2" fill="white"/>
<rect x="513" y="24" width="12" height="2" fill="white"/>
<rect x="72" y="55" width="25" height="2" fill="white"/>
<rect x="72" y="71" width="196" height="2" fill="white"/>
<rect x="415" y="55" width="110" height="2" fill="white"/>
<rect x="489" y="71" width="36" height="2" fill="white"/>
<rect x="439" y="71" width="36" height="2" fill="white"/>
<rect x="389" y="71" width="36" height="2" fill="white"/>
</svg>
