<svg width="600" height="400" viewBox="0 0 600 400" fill="none" xmlns="http://www.w3.org/2000/svg">
<rect width="600" height="400" fill="white"/>
<path d="M590 12C590 10.8954 589.105 10 588 10H147C145.895 10 145 10.8954 145 12V388C145 389.105 145.895 390 147 390H588C589.105 390 590 389.105 590 388V12Z" fill="#F3F3F3"/>
<path d="M130 12C130 10.8954 129.105 10 128 10H37C35.8954 10 35 10.8954 35 12V388C35 389.105 35.8954 390 37 390H128C129.105 390 130 389.105 130 388V12Z" fill="#D3DBDF"/>
<path opacity="0.3" d="M120 22C120 20.8954 119.105 20 118 20H47C45.8954 20 45 20.8954 45 22V32C45 33.1046 45.8954 34 47 34H118C119.105 34 120 33.1046 120 32V22Z" fill="white"/>
<path d="M66 49C66 50.1046 65.1046 51 64 51H47C45.8954 51 45 50.1046 45 49V43C45 41.8954 45.8954 41 47 41H64C65.1046 41 66 41.8954 66 43V49Z" fill="white"/>
<path d="M51 67C51 68.6569 49.6569 70 48 70V70C46.3431 70 45 68.6569 45 67V67C45 65.3431 46.3431 64 48 64V64C49.6569 64 51 65.3431 51 67V67Z" fill="white"/>
<rect x="58" y="66" width="62" height="2" fill="white"/>
<path d="M51 87C51 88.6569 49.6569 90 48 90V90C46.3431 90 45 88.6569 45 87V87C45 85.3431 46.3431 84 48 84V84C49.6569 84 51 85.3431 51 87V87Z" fill="white"/>
<rect x="58" y="86" width="62" height="2" fill="white"/>
<path d="M51 107C51 108.657 49.6569 110 48 110V110C46.3431 110 45 108.657 45 107V107C45 105.343 46.3431 104 48 104V104C49.6569 104 51 105.343 51 107V107Z" fill="white"/>
<rect x="58" y="106" width="62" height="2" fill="white"/>
<path d="M51 127C51 128.657 49.6569 130 48 130V130C46.3431 130 45 128.657 45 127V127C45 125.343 46.3431 124 48 124V124C49.6569 124 51 125.343 51 127V127Z" fill="white"/>
<rect x="58" y="126" width="62" height="2" fill="white"/>
<path d="M51 147C51 148.657 49.6569 150 48 150V150C46.3431 150 45 148.657 45 147V147C45 145.343 46.3431 144 48 144V144C49.6569 144 51 145.343 51 147V147Z" fill="white"/>
<rect x="58" y="146" width="62" height="2" fill="white"/>
<path d="M51 167C51 168.657 49.6569 170 48 170V170C46.3431 170 45 168.657 45 167V167C45 165.343 46.3431 164 48 164V164C49.6569 164 51 165.343 51 167V167Z" fill="white"/>
<rect x="58" y="166" width="62" height="2" fill="white"/>
<path d="M51 187C51 188.657 49.6569 190 48 190V190C46.3431 190 45 188.657 45 187V187C45 185.343 46.3431 184 48 184V184C49.6569 184 51 185.343 51 187V187Z" fill="white"/>
<rect x="58" y="186" width="62" height="2" fill="white"/>
<path d="M51 207C51 208.657 49.6569 210 48 210V210C46.3431 210 45 208.657 45 207V207C45 205.343 46.3431 204 48 204V204C49.6569 204 51 205.343 51 207V207Z" fill="white"/>
<rect x="58" y="206" width="62" height="2" fill="white"/>
<path d="M51 227C51 228.657 49.6569 230 48 230V230C46.3431 230 45 228.657 45 227V227C45 225.343 46.3431 224 48 224V224C49.6569 224 51 225.343 51 227V227Z" fill="white"/>
<rect x="58" y="226" width="62" height="2" fill="white"/>
<path d="M93 49C93 50.1046 92.1046 51 91 51H73C71.8954 51 71 50.1046 71 49V43C71 41.8954 71.8954 41 73 41H91C92.1046 41 93 41.8954 93 43V49Z" fill="white"/>
<path d="M120 49C120 50.1046 119.105 51 118 51H101C99.8954 51 99 50.1046 99 49V43C99 41.8954 99.8954 41 101 41H118C119.105 41 120 41.8954 120 43V49Z" fill="white"/>
<path d="M30 12C30 10.8954 29.1046 10 28 10H12C10.8954 10 10 10.8954 10 12V388C10 389.105 10.8954 390 12 390H28C29.1046 390 30 389.105 30 388V12Z" fill="#D3DBDF"/>
<circle cx="20" cy="23" r="6" fill="white"/>
<circle cx="20" cy="50" r="3" fill="white"/>
<circle cx="20" cy="70" r="3" fill="white"/>
<circle cx="20" cy="90" r="3" fill="white"/>
<circle cx="20" cy="110" r="3" fill="white"/>
<circle cx="20" cy="380" r="3" fill="white"/>
<circle cx="20" cy="360" r="3" fill="white"/>
</svg>
