<svg width="600" height="400" viewBox="0 0 600 400" fill="none" xmlns="http://www.w3.org/2000/svg">
<rect width="600" height="400" fill="white"/>
<path d="M590 47C590 45.8954 589.105 45 588 45H120C118.895 45 118 45.8954 118 47V388C118 389.105 118.895 390 120 390H588C589.105 390 590 389.105 590 388V47Z" fill="#F3F3F3"/>
<path d="M590 12C590 10.8954 589.105 10 588 10H12C10.8954 10 10 10.8954 10 12V38C10 39.1046 10.8954 40 12 40H588C589.105 40 590 39.1046 590 38V12Z" fill="#D3DBDF"/>
<rect opacity="0.5" x="51" y="19" width="114" height="13" rx="3" fill="white"/>
<circle cx="28" cy="25" r="6" fill="white"/>
<circle cx="571" cy="25" r="4" fill="white"/>
<circle cx="551" cy="25" r="4" fill="white"/>
<circle cx="531" cy="25" r="4" fill="white"/>
<path d="M105 47C105 45.8954 104.105 45 103 45H12C10.8954 45 10 45.8954 10 47V388C10 389.105 10.8954 390 12 390H103C104.105 390 105 389.105 105 388V47Z" fill="#D3DBDF"/>
<path d="M26 65C26 66.6569 24.6569 68 23 68V68C21.3431 68 20 66.6569 20 65V65C20 63.3431 21.3431 62 23 62V62C24.6569 62 26 63.3431 26 65V65Z" fill="white"/>
<rect x="33" y="64" width="62" height="2" fill="white"/>
<path d="M26 85C26 86.6569 24.6569 88 23 88V88C21.3431 88 20 86.6569 20 85V85C20 83.3431 21.3431 82 23 82V82C24.6569 82 26 83.3431 26 85V85Z" fill="white"/>
<rect x="33" y="84" width="62" height="2" fill="white"/>
<path d="M26 105C26 106.657 24.6569 108 23 108V108C21.3431 108 20 106.657 20 105V105C20 103.343 21.3431 102 23 102V102C24.6569 102 26 103.343 26 105V105Z" fill="white"/>
<rect x="33" y="104" width="62" height="2" fill="white"/>
<path d="M26 125C26 126.657 24.6569 128 23 128V128C21.3431 128 20 126.657 20 125V125C20 123.343 21.3431 122 23 122V122C24.6569 122 26 123.343 26 125V125Z" fill="white"/>
<rect x="33" y="124" width="62" height="2" fill="white"/>
<path d="M26 145C26 146.657 24.6569 148 23 148V148C21.3431 148 20 146.657 20 145V145C20 143.343 21.3431 142 23 142V142C24.6569 142 26 143.343 26 145V145Z" fill="white"/>
<rect x="33" y="144" width="62" height="2" fill="white"/>
<path d="M26 165C26 166.657 24.6569 168 23 168V168C21.3431 168 20 166.657 20 165V165C20 163.343 21.3431 162 23 162V162C24.6569 162 26 163.343 26 165V165Z" fill="white"/>
<rect x="33" y="164" width="62" height="2" fill="white"/>
<path d="M26 185C26 186.657 24.6569 188 23 188V188C21.3431 188 20 186.657 20 185V185C20 183.343 21.3431 182 23 182V182C24.6569 182 26 183.343 26 185V185Z" fill="white"/>
<rect x="33" y="184" width="62" height="2" fill="white"/>
<path d="M26 205C26 206.657 24.6569 208 23 208V208C21.3431 208 20 206.657 20 205V205C20 203.343 21.3431 202 23 202V202C24.6569 202 26 203.343 26 205V205Z" fill="white"/>
<rect x="33" y="204" width="62" height="2" fill="white"/>
<path d="M26 225C26 226.657 24.6569 228 23 228V228C21.3431 228 20 226.657 20 225V225C20 223.343 21.3431 222 23 222V222C24.6569 222 26 223.343 26 225V225Z" fill="white"/>
<rect x="33" y="224" width="62" height="2" fill="white"/>
</svg>
