<svg width="600" height="400" viewBox="0 0 600 400" fill="none" xmlns="http://www.w3.org/2000/svg">
<rect width="600" height="400" fill="white"/>
<path d="M590 10H105V118H590V10Z" fill="#D3DBDF"/>
<path d="M557 196C557 194.895 556.105 194 555 194H140C138.895 194 138 194.895 138 196V388C138 389.105 138.895 390 140 390H555C556.105 390 557 389.105 557 388V196Z" fill="#F3F3F3"/>
<path d="M557 93C557 91.8954 556.105 91 555 91H140C138.895 91 138 91.8954 138 93V180C138 181.105 138.895 182 140 182H555C556.105 182 557 181.105 557 180V93Z" fill="#F3F3F3"/>
<rect x="138" y="55" width="25" height="2" fill="white"/>
<rect x="138" y="71" width="196" height="2" fill="white"/>
<rect x="521" y="60" width="36" height="9" fill="white"/>
<rect x="471" y="60" width="36" height="9" fill="white"/>
<rect opacity="0.5" x="206" y="19" width="299" height="13" rx="3" fill="white"/>
<circle cx="144" cy="25" r="6" fill="white"/>
<circle cx="553" cy="25" r="4" fill="white"/>
<circle cx="539" cy="25" r="4" fill="white"/>
<circle cx="525" cy="25" r="4" fill="white"/>
<circle cx="185" cy="25" r="4" fill="white"/>
<circle cx="171" cy="25" r="4" fill="white"/>
<path d="M105 12C105 10.8954 104.105 10 103 10H12C10.8954 10 10 10.8954 10 12V388C10 389.105 10.8954 390 12 390H103C104.105 390 105 389.105 105 388V12Z" fill="#F3F3F3"/>
<rect opacity="0.5" x="20" y="19" width="35" height="13" rx="3" fill="#B0BEC5"/>
<rect opacity="0.5" x="60" y="19" width="35" height="13" rx="3" fill="#B0BEC5"/>
<path d="M26 145C26 146.657 24.6569 148 23 148V148C21.3431 148 20 146.657 20 145V145C20 143.343 21.3431 142 23 142V142C24.6569 142 26 143.343 26 145V145Z" fill="#B0BEC5"/>
<rect x="33" y="144" width="62" height="2" fill="#B0BEC5"/>
<path d="M26 165C26 166.657 24.6569 168 23 168V168C21.3431 168 20 166.657 20 165V165C20 163.343 21.3431 162 23 162V162C24.6569 162 26 163.343 26 165V165Z" fill="#B0BEC5"/>
<rect x="33" y="164" width="62" height="2" fill="#B0BEC5"/>
<path d="M26 185C26 186.657 24.6569 188 23 188V188C21.3431 188 20 186.657 20 185V185C20 183.343 21.3431 182 23 182V182C24.6569 182 26 183.343 26 185V185Z" fill="#B0BEC5"/>
<rect x="33" y="184" width="62" height="2" fill="#B0BEC5"/>
<path d="M26 205C26 206.657 24.6569 208 23 208V208C21.3431 208 20 206.657 20 205V205C20 203.343 21.3431 202 23 202V202C24.6569 202 26 203.343 26 205V205Z" fill="#B0BEC5"/>
<rect x="33" y="204" width="62" height="2" fill="#B0BEC5"/>
<path d="M26 225C26 226.657 24.6569 228 23 228V228C21.3431 228 20 226.657 20 225V225C20 223.343 21.3431 222 23 222V222C24.6569 222 26 223.343 26 225V225Z" fill="#B0BEC5"/>
<rect x="33" y="224" width="62" height="2" fill="#B0BEC5"/>
<path d="M26 245C26 246.657 24.6569 248 23 248V248C21.3431 248 20 246.657 20 245V245C20 243.343 21.3431 242 23 242V242C24.6569 242 26 243.343 26 245V245Z" fill="#B0BEC5"/>
<rect x="33" y="244" width="62" height="2" fill="#B0BEC5"/>
<path d="M26 265C26 266.657 24.6569 268 23 268V268C21.3431 268 20 266.657 20 265V265C20 263.343 21.3431 262 23 262V262C24.6569 262 26 263.343 26 265V265Z" fill="#B0BEC5"/>
<rect x="33" y="264" width="62" height="2" fill="#B0BEC5"/>
<path d="M26 285C26 286.657 24.6569 288 23 288V288C21.3431 288 20 286.657 20 285V285C20 283.343 21.3431 282 23 282V282C24.6569 282 26 283.343 26 285V285Z" fill="#B0BEC5"/>
<rect x="33" y="284" width="62" height="2" fill="#B0BEC5"/>
<path d="M26 305C26 306.657 24.6569 308 23 308V308C21.3431 308 20 306.657 20 305V305C20 303.343 21.3431 302 23 302V302C24.6569 302 26 303.343 26 305V305Z" fill="#B0BEC5"/>
<rect x="33" y="304" width="62" height="2" fill="#B0BEC5"/>
<circle cx="58" cy="68" r="23" fill="#B0BEC5"/>
<rect x="35" y="99" width="46" height="2" fill="#B0BEC5"/>
<rect x="43" y="105" width="30" height="1" fill="#B0BEC5"/>
<circle cx="58" cy="115" r="3" fill="#B0BEC5"/>
<circle cx="68" cy="115" r="3" fill="#B0BEC5"/>
<circle cx="48" cy="115" r="3" fill="#B0BEC5"/>
</svg>
