<svg width="600" height="400" viewBox="0 0 600 400" fill="none" xmlns="http://www.w3.org/2000/svg">
<rect width="600" height="400" fill="white"/>
<path d="M590 12C590 10.8954 589.105 10 588 10H122C120.895 10 120 10.8954 120 12V388C120 389.105 120.895 390 122 390H588C589.105 390 590 389.105 590 388V12Z" fill="#F3F3F3"/>
<path d="M105 12C105 10.8954 104.105 10 103 10H12C10.8954 10 10 10.8954 10 12V388C10 389.105 10.8954 390 12 390H103C104.105 390 105 389.105 105 388V12Z" fill="#D3DBDF"/>
<circle opacity="0.4" cx="24" cy="81" r="3" fill="#3F3D56"/>
<circle cx="23" cy="80" r="3" fill="white"/>
<rect x="32" y="79" width="28" height="3" fill="white"/>
<rect opacity="0.3" x="32" y="86" width="60" height="1" fill="white"/>
<circle opacity="0.4" cx="24" cy="101" r="3" fill="#3F3D56"/>
<circle cx="23" cy="100" r="3" fill="white"/>
<rect x="32" y="99" width="40" height="3" fill="white"/>
<rect opacity="0.3" x="32" y="106" width="54" height="1" fill="white"/>
<circle opacity="0.4" cx="24" cy="121" r="3" fill="#3F3D56"/>
<circle cx="23" cy="120" r="3" fill="white"/>
<rect x="32" y="119" width="34" height="3" fill="white"/>
<rect opacity="0.3" x="32" y="126" width="49" height="1" fill="white"/>
<circle opacity="0.4" cx="24" cy="141" r="3" fill="#3F3D56"/>
<circle cx="23" cy="140" r="3" fill="white"/>
<rect x="32" y="139" width="49" height="3" fill="white"/>
<rect opacity="0.3" x="32" y="146" width="60" height="1" fill="white"/>
<circle opacity="0.4" cx="24" cy="161" r="3" fill="#3F3D56"/>
<circle cx="23" cy="160" r="3" fill="white"/>
<rect x="32" y="159" width="13" height="3" fill="white"/>
<rect opacity="0.3" x="32" y="166" width="60" height="1" fill="white"/>
<circle opacity="0.4" cx="24" cy="181" r="3" fill="#3F3D56"/>
<circle cx="23" cy="180" r="3" fill="white"/>
<rect x="32" y="179" width="26" height="3" fill="white"/>
<rect opacity="0.3" x="32" y="186" width="46" height="1" fill="white"/>
<circle opacity="0.4" cx="24" cy="201" r="3" fill="#3F3D56"/>
<circle cx="23" cy="200" r="3" fill="white"/>
<rect x="32" y="199" width="40" height="3" fill="white"/>
<rect opacity="0.3" x="32" y="206" width="60" height="1" fill="white"/>
<circle opacity="0.4" cx="24" cy="221" r="3" fill="#3F3D56"/>
<circle cx="23" cy="220" r="3" fill="white"/>
<rect x="32" y="219" width="34" height="3" fill="white"/>
<rect opacity="0.3" x="32" y="226" width="60" height="1" fill="white"/>
<path opacity="0.3" d="M95 45C95 43.8954 94.1046 43 93 43H22C20.8954 43 20 43.8954 20 45V55C20 56.1046 20.8954 57 22 57H93C94.1046 57 95 56.1046 95 55V45Z" fill="white"/>
<circle cx="26" cy="25" r="6" fill="white"/>
<circle cx="26" cy="375" r="6" fill="white"/>
<rect x="30" y="375" width="15" height="1" fill="white"/>
<circle cx="92" cy="375" r="4" fill="white"/>
<circle cx="78" cy="375" r="4" fill="white"/>
<circle cx="64" cy="375" r="4" fill="white"/>
<rect x="31" y="24" width="40" height="2" fill="white"/>
</svg>
