<svg width="600" height="400" viewBox="0 0 600 400" fill="none" xmlns="http://www.w3.org/2000/svg">
<rect width="600" height="400" fill="white"/>
<path d="M590 84C590 82.8954 589.105 82 588 82H12C10.8954 82 10 82.8954 10 84V388C10 389.105 10.8954 390 12 390H588C589.105 390 590 389.105 590 388V84Z" fill="#F3F3F3"/>
<path d="M590 12C590 10.8954 589.105 10 588 10H12C10.8954 10 10 10.8954 10 12V38C10 39.1046 10.8954 40 12 40H588C589.105 40 590 39.1046 590 38V12Z" fill="#D3DBDF"/>
<rect opacity="0.5" x="51" y="19" width="114" height="13" rx="3" fill="white"/>
<circle cx="28" cy="25" r="6" fill="white"/>
<circle cx="571" cy="25" r="4" fill="white"/>
<circle cx="551" cy="25" r="4" fill="white"/>
<circle cx="531" cy="25" r="4" fill="white"/>
<path d="M590 44C590 42.8954 589.105 42 588 42H12C10.8954 42 10 42.8954 10 44V70C10 71.1046 10.8954 72 12 72H588C589.105 72 590 71.1046 590 70V44Z" fill="#D3DBDF"/>
<rect x="22" y="55" width="23" height="5" fill="white"/>
<rect x="62" y="55" width="23" height="5" fill="white"/>
<rect x="102" y="55" width="23" height="5" fill="white"/>
<rect x="142" y="55" width="23" height="5" fill="white"/>
<rect x="182" y="55" width="23" height="5" fill="white"/>
<rect x="222" y="55" width="23" height="5" fill="white"/>
</svg>
