<svg width="600" height="400" viewBox="0 0 600 400" fill="none" xmlns="http://www.w3.org/2000/svg">
<rect width="600" height="400" fill="white"/>
<path d="M590 47C590 45.8954 589.105 45 588 45H118C116.895 45 116 45.8954 116 47V388C116 389.105 116.895 390 118 390H588C589.105 390 590 389.105 590 388V47Z" fill="#F3F3F3"/>
<path d="M590 12C590 10.8954 589.105 10 588 10H118C116.895 10 116 10.8954 116 12V38C116 39.1046 116.895 40 118 40H588C589.105 40 590 39.1046 590 38V12Z" fill="#D3DBDF"/>
<rect opacity="0.5" x="155" y="19" width="114" height="13" rx="3" fill="white"/>
<circle cx="132" cy="25" r="6" fill="white"/>
<circle cx="575" cy="25" r="4" fill="white"/>
<circle cx="561" cy="25" r="4" fill="white"/>
<circle cx="547" cy="25" r="4" fill="white"/>
<path d="M105 12C105 10.8954 104.105 10 103 10H12C10.8954 10 10 10.8954 10 12V388C10 389.105 10.8954 390 12 390H103C104.105 390 105 389.105 105 388V12Z" fill="#D3DBDF"/>
<rect opacity="0.2" x="23.5" y="117.5" width="69" height="150" rx="3.5" stroke="white"/>
<circle cx="41" cy="131" r="3" fill="white"/>
<rect x="34" y="139" width="15" height="1" fill="white"/>
<circle cx="76" cy="131" r="3" fill="white"/>
<rect x="69" y="139" width="15" height="1" fill="white"/>
<circle cx="41" cy="161" r="3" fill="white"/>
<line opacity="0.2" x1="58.5" y1="118" x2="58.5" y2="268" stroke="white"/>
<rect x="34" y="169" width="15" height="1" fill="white"/>
<circle cx="76" cy="161" r="3" fill="white"/>
<rect x="69" y="169" width="15" height="1" fill="white"/>
<circle cx="41" cy="191" r="3" fill="white"/>
<rect x="34" y="199" width="15" height="1" fill="white"/>
<circle cx="76" cy="191" r="3" fill="white"/>
<rect x="69" y="199" width="15" height="1" fill="white"/>
<circle cx="41" cy="221" r="3" fill="white"/>
<rect x="34" y="229" width="15" height="1" fill="white"/>
<circle cx="76" cy="221" r="3" fill="white"/>
<rect x="69" y="229" width="15" height="1" fill="white"/>
<circle cx="41" cy="251" r="3" fill="white"/>
<rect x="34" y="259" width="15" height="1" fill="white"/>
<circle cx="76" cy="251" r="3" fill="white"/>
<rect x="69" y="259" width="15" height="1" fill="white"/>
<rect opacity="0.2" x="23" y="147" width="70" height="1" fill="white"/>
<rect opacity="0.2" x="23" y="177" width="70" height="1" fill="white"/>
<rect opacity="0.2" x="23" y="207" width="70" height="1" fill="white"/>
<rect opacity="0.2" x="23" y="237" width="70" height="1" fill="white"/>
<circle cx="58" cy="43" r="23" fill="white"/>
<rect x="35" y="74" width="46" height="2" fill="white"/>
<rect x="23" y="369" width="70" height="2" fill="white"/>
<rect x="23" y="379" width="70" height="2" fill="white"/>
<rect x="43" y="80" width="30" height="1" fill="white"/>
<circle cx="58" cy="90" r="3" fill="white"/>
<circle cx="68" cy="90" r="3" fill="white"/>
<circle cx="48" cy="90" r="3" fill="white"/>
</svg>
