<svg width="600" height="400" viewBox="0 0 600 400" fill="none" xmlns="http://www.w3.org/2000/svg">
<rect width="600" height="400" fill="white"/>
<path d="M590 12C590 10.8954 589.105 10 588 10H147C145.895 10 145 10.8954 145 12V388C145 389.105 145.895 390 147 390H588C589.105 390 590 389.105 590 388V12Z" fill="#F3F3F3"/>
<path d="M135 12C135 10.8954 134.105 10 133 10H42C40.8954 10 40 10.8954 40 12V388C40 389.105 40.8954 390 42 390H133C134.105 390 135 389.105 135 388V12Z" fill="#D3DBDF"/>
<path opacity="0.3" d="M125 22C125 20.8954 124.105 20 123 20H52C50.8954 20 50 20.8954 50 22V32C50 33.1046 50.8954 34 52 34H123C124.105 34 125 33.1046 125 32V22Z" fill="white"/>
<path d="M56 50C56 51.6569 54.6569 53 53 53V53C51.3431 53 50 51.6569 50 50V50C50 48.3431 51.3431 47 53 47V47C54.6569 47 56 48.3431 56 50V50Z" fill="white"/>
<rect x="63" y="49" width="62" height="2" fill="white"/>
<path d="M56 70C56 71.6569 54.6569 73 53 73V73C51.3431 73 50 71.6569 50 70V70C50 68.3431 51.3431 67 53 67V67C54.6569 67 56 68.3431 56 70V70Z" fill="white"/>
<rect x="63" y="69" width="62" height="2" fill="white"/>
<path d="M56 90C56 91.6569 54.6569 93 53 93V93C51.3431 93 50 91.6569 50 90V90C50 88.3431 51.3431 87 53 87V87C54.6569 87 56 88.3431 56 90V90Z" fill="white"/>
<rect x="63" y="89" width="62" height="2" fill="white"/>
<path d="M56 110C56 111.657 54.6569 113 53 113V113C51.3431 113 50 111.657 50 110V110C50 108.343 51.3431 107 53 107V107C54.6569 107 56 108.343 56 110V110Z" fill="white"/>
<rect x="63" y="109" width="62" height="2" fill="white"/>
<path d="M56 130C56 131.657 54.6569 133 53 133V133C51.3431 133 50 131.657 50 130V130C50 128.343 51.3431 127 53 127V127C54.6569 127 56 128.343 56 130V130Z" fill="white"/>
<rect x="63" y="129" width="62" height="2" fill="white"/>
<path d="M56 150C56 151.657 54.6569 153 53 153V153C51.3431 153 50 151.657 50 150V150C50 148.343 51.3431 147 53 147V147C54.6569 147 56 148.343 56 150V150Z" fill="white"/>
<rect x="63" y="149" width="62" height="2" fill="white"/>
<path d="M56 170C56 171.657 54.6569 173 53 173V173C51.3431 173 50 171.657 50 170V170C50 168.343 51.3431 167 53 167V167C54.6569 167 56 168.343 56 170V170Z" fill="white"/>
<rect x="63" y="169" width="62" height="2" fill="white"/>
<path d="M56 190C56 191.657 54.6569 193 53 193V193C51.3431 193 50 191.657 50 190V190C50 188.343 51.3431 187 53 187V187C54.6569 187 56 188.343 56 190V190Z" fill="white"/>
<rect x="63" y="189" width="62" height="2" fill="white"/>
<path d="M56 210C56 211.657 54.6569 213 53 213V213C51.3431 213 50 211.657 50 210V210C50 208.343 51.3431 207 53 207V207C54.6569 207 56 208.343 56 210V210Z" fill="white"/>
<rect x="63" y="209" width="62" height="2" fill="white"/>
<path d="M30 12C30 10.8954 29.1046 10 28 10H12C10.8954 10 10 10.8954 10 12V388C10 389.105 10.8954 390 12 390H28C29.1046 390 30 389.105 30 388V12Z" fill="#D3DBDF"/>
<circle cx="20" cy="23" r="6" fill="white"/>
<circle cx="20" cy="50" r="3" fill="white"/>
<circle cx="20" cy="70" r="3" fill="white"/>
<circle cx="20" cy="90" r="3" fill="white"/>
<circle cx="20" cy="110" r="3" fill="white"/>
<circle cx="20" cy="380" r="3" fill="white"/>
<circle cx="20" cy="360" r="3" fill="white"/>
</svg>
