<svg width="600" height="400" viewBox="0 0 600 400" fill="none" xmlns="http://www.w3.org/2000/svg">
<rect width="600" height="400" fill="white"/>
<path d="M590 47C590 45.8954 589.105 45 588 45H147C145.895 45 145 45.8954 145 47V388C145 389.105 145.895 390 147 390H588C589.105 390 590 389.105 590 388V47Z" fill="#F3F3F3"/>
<path d="M590 12C590 10.8954 589.105 10 588 10H147C145.895 10 145 10.8954 145 12V38C145 39.1046 145.895 40 147 40H588C589.105 40 590 39.1046 590 38V12Z" fill="#D3DBDF"/>
<rect x="159" y="24" width="23" height="2" fill="white"/>
<rect x="199" y="24" width="23" height="2" fill="white"/>
<rect x="239" y="24" width="23" height="2" fill="white"/>
<path d="M105 12C105 10.8954 104.105 10 103 10H12C10.8954 10 10 10.8954 10 12V388C10 389.105 10.8954 390 12 390H103C104.105 390 105 389.105 105 388V12Z" fill="#D3DBDF"/>
<path opacity="0.3" d="M95 22C95 20.8954 94.1046 20 93 20H22C20.8954 20 20 20.8954 20 22V32C20 33.1046 20.8954 34 22 34H93C94.1046 34 95 33.1046 95 32V22Z" fill="white"/>
<path d="M26 50C26 51.6569 24.6569 53 23 53V53C21.3431 53 20 51.6569 20 50V50C20 48.3431 21.3431 47 23 47V47C24.6569 47 26 48.3431 26 50V50Z" fill="white"/>
<rect x="33" y="49" width="62" height="2" fill="white"/>
<path d="M26 70C26 71.6569 24.6569 73 23 73V73C21.3431 73 20 71.6569 20 70V70C20 68.3431 21.3431 67 23 67V67C24.6569 67 26 68.3431 26 70V70Z" fill="white"/>
<rect x="33" y="69" width="62" height="2" fill="white"/>
<path d="M26 90C26 91.6569 24.6569 93 23 93V93C21.3431 93 20 91.6569 20 90V90C20 88.3431 21.3431 87 23 87V87C24.6569 87 26 88.3431 26 90V90Z" fill="white"/>
<rect x="33" y="89" width="62" height="2" fill="white"/>
<path d="M26 110C26 111.657 24.6569 113 23 113V113C21.3431 113 20 111.657 20 110V110C20 108.343 21.3431 107 23 107V107C24.6569 107 26 108.343 26 110V110Z" fill="white"/>
<rect x="33" y="109" width="62" height="2" fill="white"/>
<path d="M26 130C26 131.657 24.6569 133 23 133V133C21.3431 133 20 131.657 20 130V130C20 128.343 21.3431 127 23 127V127C24.6569 127 26 128.343 26 130V130Z" fill="white"/>
<rect x="33" y="129" width="62" height="2" fill="white"/>
<path d="M26 150C26 151.657 24.6569 153 23 153V153C21.3431 153 20 151.657 20 150V150C20 148.343 21.3431 147 23 147V147C24.6569 147 26 148.343 26 150V150Z" fill="white"/>
<rect x="33" y="149" width="62" height="2" fill="white"/>
<path d="M26 170C26 171.657 24.6569 173 23 173V173C21.3431 173 20 171.657 20 170V170C20 168.343 21.3431 167 23 167V167C24.6569 167 26 168.343 26 170V170Z" fill="white"/>
<rect x="33" y="169" width="62" height="2" fill="white"/>
<path d="M26 190C26 191.657 24.6569 193 23 193V193C21.3431 193 20 191.657 20 190V190C20 188.343 21.3431 187 23 187V187C24.6569 187 26 188.343 26 190V190Z" fill="white"/>
<rect x="33" y="189" width="62" height="2" fill="white"/>
<path d="M26 210C26 211.657 24.6569 213 23 213V213C21.3431 213 20 211.657 20 210V210C20 208.343 21.3431 207 23 207V207C24.6569 207 26 208.343 26 210V210Z" fill="white"/>
<rect x="33" y="209" width="62" height="2" fill="white"/>
<path d="M130 12C130 10.8954 129.105 10 128 10H112C110.895 10 110 10.8954 110 12V388C110 389.105 110.895 390 112 390H128C129.105 390 130 389.105 130 388V12Z" fill="#D3DBDF"/>
<circle cx="120" cy="23" r="6" fill="white"/>
<circle cx="120" cy="50" r="3" fill="white"/>
<circle cx="120" cy="70" r="3" fill="white"/>
<circle cx="120" cy="90" r="3" fill="white"/>
<circle cx="120" cy="110" r="3" fill="white"/>
<circle cx="120" cy="380" r="3" fill="white"/>
<circle cx="120" cy="360" r="3" fill="white"/>
</svg>
