<svg width="300" height="300" viewBox="0 0 300 300" fill="none" xmlns="http://www.w3.org/2000/svg">
<path d="M122.148 197.788C120.79 196.769 119.601 196.09 118.412 195.58C117.054 195.071 115.865 194.901 114.506 194.901C111.789 194.731 108.732 195.241 105.845 195.92C102.958 196.599 100.241 197.448 98.2028 198.128C96.1649 198.807 94.8063 199.316 94.8063 199.316C94.8063 199.316 96.1649 199.996 98.2028 201.015C100.241 201.864 103.128 202.883 106.354 203.392C109.411 203.902 112.978 204.072 115.865 203.222C118.752 202.373 121.299 200.675 122.148 197.788Z" fill="url(#paint0_linear)"/>
<path d="M113.318 185.051C114.506 187.598 116.035 189.976 118.243 191.674C119.262 192.523 120.45 193.033 121.809 193.372C122.998 193.542 124.356 193.542 125.715 193.033C125.715 189.976 125.036 187.598 123.677 185.56C122.318 183.522 120.62 181.654 118.752 180.126C116.884 178.598 114.846 177.239 113.487 176.39C111.959 175.541 111.11 174.861 111.11 174.861C111.11 174.861 111.11 175.201 111.11 175.71C111.11 176.22 111.28 177.069 111.45 178.088C111.619 179.956 112.299 182.504 113.318 185.051Z" fill="url(#paint1_linear)"/>
<path d="M92.7684 191.674C95.6554 191.505 98.2028 190.486 99.9011 188.108C98.5425 185.561 96.3347 184.202 93.7873 183.353C91.2399 182.504 88.183 182.334 85.1262 182.334C82.2391 182.164 79.1822 182.334 76.9745 182.334C74.7667 182.334 73.2383 182.334 73.2383 182.334C73.2383 182.334 73.5779 182.674 74.0874 183.183C74.5969 183.693 75.2762 184.372 76.2952 185.051C78.1633 186.58 80.8805 188.448 83.7675 189.636C86.6546 190.995 89.8813 191.844 92.7684 191.674Z" fill="url(#paint2_linear)"/>
<path d="M98.2029 180.466C99.9011 182.504 102.109 183.862 104.996 183.692C106.185 180.975 106.015 178.258 105.166 175.88C104.317 173.503 102.958 171.295 101.599 169.257C100.241 167.389 98.7123 165.691 97.6934 164.502C97.1839 163.993 96.6744 163.483 96.5046 163.143C96.1649 162.804 95.9951 162.634 95.9951 162.634C95.9951 162.634 95.8253 162.974 95.8253 163.483C95.6555 163.993 95.4856 164.842 95.3158 165.691C94.9762 167.559 94.8063 170.106 95.3158 172.824C95.6555 175.541 96.6744 178.258 98.2029 180.466Z" fill="url(#paint3_linear)"/>
<path d="M63.0488 159.747C61.0108 159.067 59.6522 158.728 59.6522 158.728C59.6522 158.728 59.822 159.067 59.9919 159.577C60.3315 160.086 60.6712 160.936 61.1807 161.785C61.6901 162.804 62.3694 163.823 63.0488 165.011C63.3884 165.521 63.8979 166.2 64.2375 166.71L64.5772 167.219L64.9169 167.729C65.2565 168.068 65.4263 168.408 65.766 168.748C68.1436 171.635 71.0306 173.673 73.9177 174.692C76.8047 175.541 79.6918 175.371 82.0694 173.503C81.39 170.616 79.8616 168.748 77.6539 167.049C77.1444 166.54 76.4651 166.2 75.9556 165.861C75.2763 165.521 74.7668 165.011 74.0875 164.672C73.4082 164.332 72.7289 163.823 72.0496 163.483C71.3703 163.143 70.691 162.804 70.1815 162.464C67.8039 161.445 65.0867 160.426 63.0488 159.747Z" fill="url(#paint4_linear)"/>
<path d="M82.9185 164.842C83.7676 167.389 85.4659 169.427 88.1831 169.936C90.0512 167.559 90.7305 165.011 90.9004 162.634C91.0702 160.256 90.7305 158.049 90.3909 156.011C90.2211 155.162 90.0512 153.803 89.7116 152.784C89.3719 151.765 89.0323 150.746 88.6926 149.897C88.353 149.048 88.0133 148.368 87.8435 147.859C87.6737 147.35 87.5038 147.18 87.5038 147.18C87.5038 147.18 87.334 147.519 86.9943 147.859C86.6547 148.368 86.315 149.048 85.8056 149.897C84.9564 151.595 83.7676 153.973 83.0883 156.69C82.9185 157.369 82.7487 158.049 82.5788 158.728C82.409 159.407 82.409 160.087 82.2392 160.766C82.2392 161.445 82.2392 162.124 82.2392 162.804C82.7487 163.653 82.7487 164.332 82.9185 164.842Z" fill="url(#paint5_linear)"/>
<path d="M59.992 149.727C60.5015 150.236 61.011 150.746 61.5205 151.255C62.0299 151.765 62.7092 152.104 63.2187 152.614C65.5963 154.142 68.1437 154.822 71.0307 153.973C71.2006 152.614 71.2006 151.255 70.8609 150.067C70.6911 149.387 70.3514 148.878 70.0118 148.368C69.6721 147.859 69.3325 147.349 68.9928 146.67C67.4644 144.462 65.0868 142.764 62.7092 141.066C60.3317 139.367 57.9541 138.009 56.086 136.99C54.2179 135.971 53.0291 135.292 53.0291 135.292C53.0291 135.292 53.0291 135.631 53.1989 136.311C53.3688 136.99 53.5386 137.839 54.0481 138.858C54.7274 140.896 55.7463 143.783 57.4446 146.33C58.1239 147.349 58.973 148.538 59.992 149.727Z" fill="url(#paint6_linear)"/>
<path d="M75.4461 148.538C75.9555 149.727 76.8047 150.746 77.9935 151.425C80.5409 149.897 82.0693 147.689 82.9184 145.311C83.0883 144.632 83.2581 144.123 83.4279 143.443C83.4279 143.104 83.5977 142.764 83.5977 142.424C83.5977 142.085 83.7676 141.745 83.7676 141.405C83.9374 140.047 83.9374 138.858 83.9374 137.669C83.7676 135.292 83.5977 132.914 83.2581 131.216C83.0883 130.367 82.9184 129.687 82.9184 129.178C82.9184 128.668 82.7486 128.499 82.7486 128.499C82.7486 128.499 82.409 128.838 81.8995 129.348C81.5598 129.687 80.8805 130.367 80.371 131.046C79.1822 132.574 77.6538 134.612 76.465 137.16C75.2762 139.537 74.5969 142.424 74.5969 144.972C74.5969 145.651 74.7668 146.33 74.7668 146.84C74.9366 147.519 75.1064 148.029 75.4461 148.538Z" fill="url(#paint7_linear)"/>
<path d="M54.897 126.121C55.2367 126.8 55.5764 127.48 56.0858 127.989C56.5953 128.499 57.1048 129.178 57.6143 129.688C59.6522 131.725 62.1996 132.744 65.0867 132.575C65.5961 131.216 65.766 129.857 65.5961 128.669C65.5961 127.989 65.4263 127.48 65.2565 126.8C64.9168 126.121 64.747 125.442 64.4073 124.932C63.8979 123.744 63.2186 122.555 62.3694 121.366C61.8599 120.857 61.5203 120.177 61.0108 119.668C60.5013 119.158 60.1617 118.649 59.6522 117.969C57.7841 115.762 55.5764 113.894 54.0479 112.365C52.3496 111.007 51.3307 110.157 51.3307 110.157C51.3307 110.157 51.3307 111.686 51.5005 113.894C51.5005 115.082 51.8402 116.271 52.01 117.63C52.1798 118.309 52.3496 118.988 52.5195 119.838C52.6893 120.517 52.8591 121.366 53.1988 122.045C53.5384 123.404 54.2177 124.763 54.897 126.121Z" fill="url(#paint8_linear)"/>
<path d="M72.2194 130.876C75.1065 129.857 76.9746 127.989 78.1633 125.781C78.503 125.272 78.6728 124.762 79.0125 124.083C79.3521 123.574 79.522 122.894 79.6918 122.385C80.0314 121.196 80.3711 120.007 80.5409 118.819C80.7107 117.63 81.0504 116.441 81.0504 115.422C81.0504 114.913 81.2202 114.403 81.2202 113.894C81.2202 113.384 81.2202 113.044 81.39 112.535C81.5599 110.837 81.5599 109.818 81.5599 109.818C81.5599 109.818 80.5409 110.497 78.8426 111.516C78.503 111.856 77.9935 112.195 77.6539 112.535C77.1444 112.875 76.8047 113.214 76.2952 113.724C75.4461 114.573 74.597 115.422 73.7478 116.611C73.2384 117.12 72.8987 117.63 72.5591 118.309C72.3892 118.649 72.2194 118.819 72.0496 119.158C71.8798 119.498 71.7099 119.838 71.5401 120.007C71.0306 121.196 70.5211 122.555 70.1815 123.744C70.0117 124.423 70.0117 125.102 70.0117 125.781C70.0117 126.461 70.1815 126.97 70.3513 127.65C70.5211 128.838 71.2004 129.857 72.2194 130.876Z" fill="url(#paint9_linear)"/>
<path d="M61.8599 95.0428C61.1806 93.854 60.5012 92.4954 59.8219 91.4764C59.1426 90.2876 58.4633 89.2687 57.9538 88.4195C56.7651 86.5514 56.0858 85.5325 56.0858 85.5325C56.0858 85.5325 55.7461 86.8911 55.2366 89.0988C54.897 90.1178 54.7271 91.3066 54.7271 92.6652C54.7271 93.3445 54.5573 94.0238 54.5573 94.8729C54.5573 95.5523 54.5573 96.4014 54.7271 97.0807C54.897 98.6091 55.0668 100.138 55.4064 101.666C55.9159 103.194 56.4254 104.553 57.1047 105.742C58.4633 108.119 60.8409 109.818 63.728 110.327C64.0676 109.648 64.4073 109.138 64.5771 108.459C64.7469 107.78 64.9167 107.27 65.0866 106.591C65.2564 105.402 65.2564 104.044 64.9167 102.855C64.7469 101.496 64.2374 100.307 63.728 98.9488C63.2185 97.5902 62.5392 96.4014 61.8599 95.0428Z" fill="url(#paint10_linear)"/>
<path d="M77.8237 106.421C78.6728 105.572 79.5219 104.553 80.0314 103.534C80.7107 102.515 81.39 101.496 81.8995 100.477C82.2391 99.9679 82.409 99.4584 82.5788 98.9489C82.7486 98.4394 83.0883 97.93 83.2581 97.4205C83.5978 96.4015 83.9374 95.5524 84.2771 94.8731C84.7865 93.3446 85.1262 92.3257 85.1262 92.3257C85.1262 92.3257 83.9374 92.6653 82.0693 93.3446C80.2012 94.0239 77.9935 95.2127 75.7857 96.7412C75.2763 97.0808 74.5969 97.5903 74.2573 97.93C73.7478 98.4394 73.2383 98.7791 72.8987 99.2886C72.0495 100.308 71.2004 101.327 70.6909 102.515C70.1815 103.704 69.8418 104.893 69.8418 106.082C69.8418 106.761 69.8418 107.27 70.0116 107.95C70.1815 108.629 70.5211 109.139 70.8608 109.818C73.9176 109.478 75.9556 108.12 77.8237 106.421Z" fill="url(#paint11_linear)"/>
<path d="M69.1627 87.2308C69.5023 86.7213 69.842 86.2119 70.1817 85.5326C70.3515 85.0231 70.6911 84.3438 70.6911 83.6645C70.861 82.9852 70.861 82.4757 70.861 81.7964C71.0308 80.4378 70.861 79.0791 70.6911 77.7205C70.5213 76.3619 70.1817 74.8335 69.842 73.4749C69.1627 70.5878 68.3136 68.0404 67.6343 66.0025C66.9549 63.9646 66.4455 62.606 66.4455 62.606C66.4455 62.606 66.2756 62.9456 65.936 63.4551C65.7662 64.3042 65.2567 64.9835 64.917 66.0025C63.8981 68.0404 63.0489 70.7576 62.3696 73.8145C62.1998 75.343 62.03 76.8714 62.03 78.3998C62.03 79.0791 62.03 79.9283 62.1998 80.6076C62.3696 81.2869 62.3696 81.9662 62.7093 82.6455C63.0489 84.0041 63.7282 85.1929 64.5774 86.2119C65.4265 87.2308 66.6153 88.08 67.9739 88.5894C68.3136 88.2498 68.823 87.7403 69.1627 87.2308Z" fill="url(#paint12_linear)"/>
<path d="M92.5986 76.5316C92.7684 76.192 92.9382 75.8523 92.9382 75.8523C92.9382 75.8523 92.5986 75.8523 92.0891 75.8523C91.5796 75.8523 90.7305 75.8523 89.8813 76.0221C88.8624 76.1919 87.8434 76.3618 86.6546 76.5316C86.1451 76.7014 85.4658 76.8713 84.7865 77.0411C84.1072 77.2109 83.5977 77.3807 82.9184 77.7204C81.7296 78.2299 80.371 78.7394 79.3521 79.5885C78.3331 80.2678 77.3142 81.2868 76.465 82.1359C75.9555 82.6454 75.7857 83.1548 75.4461 83.6643C75.1064 84.1738 74.9366 84.8531 74.7668 85.3626C74.5969 85.8721 74.5969 86.5514 74.5969 87.2307C74.5969 87.91 74.7668 88.5893 74.9366 89.0988C76.465 89.2686 77.8236 89.2686 79.0124 88.929C80.2012 88.5893 81.39 88.2496 82.5788 87.5703C83.0883 87.2307 83.5977 86.891 84.1072 86.5514C84.277 86.3816 84.6167 86.2117 84.7865 86.0419C84.9564 85.8721 85.296 85.7022 85.4658 85.5324C86.4848 84.6833 87.1641 83.8342 88.0132 82.985C88.8624 82.1359 89.5417 81.2868 90.0512 80.4376C90.221 80.2678 90.3908 80.098 90.5606 79.7583C90.7305 79.5885 90.9003 79.4187 91.0701 79.2488C91.4098 78.9092 91.5796 78.5695 91.7494 78.2299C92.0891 77.5506 92.4287 76.8713 92.5986 76.5316Z" fill="url(#paint13_linear)"/>
<path d="M77.3142 69.0592C78.6728 68.3799 79.522 67.5308 80.2013 66.5118C81.0504 65.4929 81.5599 64.4739 81.8995 63.1153C82.7487 60.5679 82.7487 57.6808 82.7487 54.7938C82.7487 54.1145 82.7487 53.4352 82.7487 52.586C82.7487 51.9067 82.7487 51.2274 82.5788 50.5481C82.409 49.1895 82.409 48.0007 82.2392 46.9817C82.0694 44.9438 81.7297 43.5852 81.7297 43.5852C81.7297 43.5852 81.5599 43.9249 81.0504 44.2645C80.7108 44.774 80.0315 45.4533 79.3521 46.3024C78.6728 47.1516 77.9935 48.1705 77.3142 49.3593C76.6349 50.5481 75.9556 51.7369 75.2763 53.2653C74.7668 54.6239 74.2573 56.1524 73.9177 57.511C73.578 59.0394 73.4082 60.3981 73.578 61.7567C73.7479 64.8135 74.9366 67.1911 77.3142 69.0592Z" fill="url(#paint14_linear)"/>
<path d="M98.0332 67.5308C99.0521 66.8515 99.9013 66.1722 100.75 65.4929C101.6 64.8136 102.279 64.1343 102.788 63.6248C103.298 63.1153 103.807 62.6059 104.147 62.2662C104.487 61.9266 104.656 61.7567 104.656 61.7567C104.656 61.7567 103.468 61.4171 101.43 61.2472C100.581 60.9076 99.3918 60.9076 98.203 60.9076C97.0142 60.9076 95.6556 61.0774 94.297 61.2472C91.5797 61.5869 89.0323 62.6059 86.9944 64.1343C85.9755 64.9834 85.1263 65.8326 84.6169 66.8515C84.1074 67.8705 83.7677 69.2291 83.9375 70.5877C86.6548 71.7765 89.2022 71.6067 91.5798 70.9274C92.7685 70.5877 93.9573 70.0782 94.9763 69.5688C95.9952 68.8894 97.0142 68.2101 98.0332 67.5308Z" fill="url(#paint15_linear)"/>
<path d="M92.7684 179.956C100.58 186.41 110.091 190.825 119.431 194.731C127.073 197.788 136.923 202.883 146.943 207.638C137.942 210.355 129.111 212.733 121.979 213.922C120.96 214.091 125.885 219.016 126.734 218.677C135.055 216.129 143.377 213.072 151.698 209.846C160.699 213.922 169.7 217.488 177.002 218.677C177.852 218.847 180.739 213.922 179.889 213.752C172.927 212.563 164.775 210.525 156.453 207.808C170.379 202.034 183.795 195.41 195.344 189.127C207.911 182.334 217.251 172.654 223.535 159.577C229.309 147.689 233.385 134.443 233.894 121.196C234.744 102.855 228.46 84.6834 218.95 69.2292C216.063 64.6438 213.006 60.2283 209.609 55.9827C209.949 54.7939 209.949 53.6051 209.779 52.5861C209.609 51.3974 209.1 50.0387 208.251 49.0198C206.722 46.812 204.514 44.9439 201.967 43.5853C199.589 42.2267 197.042 41.3776 195.174 41.0379C194.155 40.8681 193.476 40.6983 192.966 40.5284C192.626 40.5284 192.457 40.5284 192.287 40.5284C192.117 40.5284 192.117 40.5284 192.117 40.5284C192.117 40.5284 192.117 40.5284 192.117 40.6983C192.117 40.8681 192.287 41.0379 192.457 41.2077C192.626 41.7172 193.136 42.3965 193.476 43.2457C194.325 44.9439 195.683 47.1517 197.042 49.1896C197.721 50.2086 198.57 51.2275 199.42 52.2465C199.759 52.756 200.269 53.2654 200.778 53.6051C201.288 54.1146 201.627 54.4542 202.137 54.7939C203.156 55.4732 204.175 55.9827 205.363 56.3223C206.213 56.4922 207.232 56.662 208.251 56.662C214.874 64.6438 220.308 73.8145 224.554 82.9851C229.819 94.7032 232.706 107.44 232.366 120.347C232.026 134.443 227.441 148.708 220.988 161.105C216.063 170.786 208.93 178.767 199.759 184.542C191.608 189.806 182.607 193.712 173.776 197.618C167.152 200.505 159.171 203.392 151.189 206.11C134.036 200.335 116.035 192.523 103.637 185.56C97.1839 181.824 91.2399 177.409 86.3149 171.635C81.39 166.03 77.9934 159.237 75.1064 152.274C69.8418 139.198 66.4452 125.781 67.1245 111.516C68.1435 95.0428 74.5969 79.0791 83.5977 65.493C85.9753 61.9266 88.5227 58.5301 91.2399 55.1335C92.2589 55.1335 93.108 55.1335 93.9571 54.7939C95.1459 54.4542 96.1649 53.9448 97.1839 53.2654C97.6933 52.9258 98.2028 52.5861 98.5425 52.0767C99.0519 51.737 99.3916 51.2275 99.9011 50.718C100.75 49.6991 101.599 48.6801 102.279 47.6612C103.807 45.4534 104.996 43.4155 105.845 41.7172C106.354 40.8681 106.694 40.1888 106.864 39.6793C107.034 39.5095 107.034 39.1698 107.204 39.1698C107.204 39 107.204 39 107.204 39C107.204 39 107.204 39 107.034 39C106.864 39 106.694 39 106.355 39C105.845 39 104.996 39.1698 104.147 39.5095C102.279 40.019 99.7313 40.8681 97.3537 42.0569C94.9761 43.4155 92.5985 45.1138 91.0701 47.4913C90.3908 48.5103 89.8813 49.8689 89.5417 51.0577C89.3718 52.0767 89.3718 53.2654 89.7115 54.4542C83.2581 62.0964 77.9934 70.7576 73.9176 79.5886C68.8228 90.4575 65.7659 102.176 65.4263 114.063C64.9168 127.819 68.653 140.896 73.7478 153.633C78.3331 163.653 84.277 172.993 92.7684 179.956Z" fill="url(#paint16_linear)"/>
<path d="M193.306 204.921C196.363 204.411 199.25 203.392 201.458 202.543C203.496 201.694 204.854 200.845 204.854 200.845C204.854 200.845 203.496 200.335 201.458 199.656C199.42 198.977 196.703 198.128 193.815 197.448C190.928 196.769 187.872 196.26 185.154 196.429C183.796 196.429 182.437 196.769 181.248 197.109C179.89 197.618 178.871 198.297 177.512 199.316C178.361 202.203 180.909 204.072 183.796 204.921C186.853 205.6 190.249 205.43 193.306 204.921Z" fill="url(#paint17_linear)"/>
<path d="M177.852 194.561C179.04 194.391 180.229 193.712 181.418 192.863C183.626 191.335 185.154 188.787 186.343 186.24C187.532 183.692 188.041 181.145 188.381 179.277C188.551 178.258 188.551 177.579 188.72 176.899C188.72 176.39 188.72 176.05 188.72 176.05C188.72 176.05 187.701 176.56 186.343 177.409C184.814 178.258 182.946 179.617 181.078 181.145C179.21 182.673 177.342 184.542 176.153 186.579C174.795 188.617 174.115 190.995 174.115 194.052C175.304 194.731 176.663 194.901 177.852 194.561Z" fill="url(#paint18_linear)"/>
<path d="M214.534 183.692C211.647 183.862 208.59 184.032 205.873 184.711C203.326 185.561 201.118 186.919 199.759 189.467C201.458 191.844 204.005 193.033 206.892 193.033C209.779 193.203 213.006 192.354 215.893 190.995C218.78 189.636 221.497 187.938 223.365 186.41C224.384 185.73 225.063 184.881 225.573 184.542C226.082 184.032 226.422 183.692 226.422 183.692C226.422 183.692 225.063 183.692 222.686 183.692C220.308 183.692 217.421 183.523 214.534 183.692Z" fill="url(#paint19_linear)"/>
<path d="M194.664 185.051C197.552 185.221 199.759 183.862 201.458 181.824C203.156 179.786 204.005 177.069 204.514 174.352C204.854 171.635 204.854 169.087 204.514 167.219C204.345 166.2 204.175 165.521 204.005 165.011C203.835 164.502 203.835 164.162 203.835 164.162C203.835 164.162 203.665 164.332 203.326 164.672C202.986 165.011 202.646 165.521 202.137 166.03C201.118 167.219 199.589 168.917 198.231 170.786C196.872 172.654 195.514 174.861 194.664 177.409C193.815 179.617 193.476 182.334 194.664 185.051Z" fill="url(#paint20_linear)"/>
<path d="M233.725 170.276C234.064 169.936 234.234 169.597 234.574 169.257L234.913 168.748L235.253 168.238C235.593 167.729 236.102 167.049 236.442 166.54C237.121 165.351 237.801 164.332 238.31 163.313C238.819 162.294 239.159 161.615 239.499 161.105C239.838 160.596 239.838 160.256 239.838 160.256C239.838 160.256 238.48 160.596 236.442 161.275C234.404 161.954 231.687 162.804 229.139 163.992C228.46 164.332 227.781 164.672 227.271 165.011C226.592 165.351 225.913 165.861 225.233 166.2C224.554 166.54 223.875 167.049 223.365 167.389C222.686 167.729 222.176 168.238 221.667 168.578C219.459 170.276 217.931 172.314 217.251 175.031C219.629 176.899 222.516 177.069 225.403 176.22C228.29 175.371 231.347 173.163 233.725 170.276Z" fill="url(#paint21_linear)"/>
<path d="M216.402 158.388C215.723 155.671 214.534 153.293 213.685 151.595C213.175 150.746 212.836 150.067 212.496 149.557C212.156 149.048 211.987 148.878 211.987 148.878C211.987 148.878 211.817 149.218 211.647 149.557C211.477 150.067 211.137 150.746 210.798 151.595C210.458 152.444 210.119 153.463 209.779 154.482C209.439 155.501 209.1 156.86 209.1 157.709C208.93 159.577 208.59 161.955 208.59 164.332C208.76 166.71 209.269 169.257 211.307 171.635C214.025 170.955 215.893 168.917 216.572 166.54C216.742 165.861 216.912 165.351 216.912 164.672C216.912 163.993 216.912 163.313 216.912 162.634C216.912 161.955 216.742 161.275 216.572 160.596C216.742 159.747 216.572 159.068 216.402 158.388Z" fill="url(#paint22_linear)"/>
<path d="M246.462 137.5C246.632 136.82 246.632 136.481 246.632 136.481C246.632 136.481 245.443 137.16 243.575 138.179C241.707 139.198 239.329 140.726 236.951 142.255C234.574 143.953 232.196 145.821 230.668 147.859C230.328 148.369 229.989 148.878 229.649 149.557C229.309 150.067 229.139 150.746 228.97 151.256C228.63 152.444 228.46 153.803 228.8 155.162C231.687 156.011 234.234 155.331 236.612 153.803C237.121 153.463 237.801 152.954 238.31 152.444C238.82 151.935 239.329 151.425 239.838 150.916C240.857 149.727 241.707 148.538 242.556 147.18C244.254 144.632 245.273 141.915 245.952 139.707C246.122 139.028 246.292 138.179 246.462 137.5Z" fill="url(#paint23_linear)"/>
<path d="M221.667 152.954C222.856 152.105 223.705 151.086 224.214 150.067C224.554 149.557 224.724 148.878 224.894 148.368C225.063 147.689 225.233 147.18 225.233 146.5C225.233 143.953 224.554 141.066 223.365 138.688C222.176 136.141 220.648 134.103 219.459 132.574C218.78 131.895 218.27 131.216 217.931 130.876C217.591 130.537 217.251 130.197 217.251 130.197C217.251 130.197 217.251 130.537 217.082 130.876C216.912 131.386 216.742 132.065 216.742 132.914C216.402 134.612 216.232 136.82 216.063 139.368C216.063 140.556 216.063 141.915 216.232 143.104C216.232 143.443 216.402 143.783 216.402 144.123C216.402 144.462 216.572 144.802 216.572 145.142C216.742 145.821 216.912 146.33 217.082 147.01C217.591 149.217 219.12 151.425 221.667 152.954Z" fill="url(#paint24_linear)"/>
<path d="M240.178 119.498C239.669 120.007 239.159 120.517 238.819 121.196C238.31 121.706 237.97 122.385 237.461 122.894C236.612 124.083 235.763 125.272 235.253 126.461C234.913 127.14 234.744 127.65 234.574 128.329C234.404 129.008 234.234 129.518 234.234 130.197C234.064 131.386 234.234 132.744 234.744 134.103C237.631 134.443 240.178 133.254 242.216 131.216C242.725 130.706 243.235 130.197 243.744 129.518C244.254 129.008 244.594 128.329 244.933 127.65C245.612 126.291 246.292 124.932 246.801 123.404C247.141 122.725 247.311 121.875 247.481 121.196C247.65 120.517 247.82 119.838 247.99 118.988C248.33 117.63 248.5 116.271 248.5 115.252C248.669 113.044 248.669 111.516 248.669 111.516C248.669 111.516 247.65 112.365 246.122 113.894C244.254 115.422 242.046 117.29 240.178 119.498Z" fill="url(#paint25_linear)"/>
<path d="M229.479 129.008C229.649 128.329 229.819 127.819 229.819 127.14C229.819 126.461 229.819 125.951 229.649 125.272C229.479 124.083 228.969 122.725 228.29 121.536C228.12 121.196 227.95 120.857 227.781 120.687C227.611 120.347 227.441 120.177 227.271 119.838C226.932 119.328 226.422 118.649 226.082 118.139C225.233 117.12 224.384 116.101 223.535 115.252C223.195 114.913 222.686 114.403 222.176 114.064C221.667 113.724 221.327 113.384 220.988 113.045C219.459 111.856 218.27 111.346 218.27 111.346C218.27 111.346 218.27 112.365 218.44 114.064C218.44 114.403 218.61 114.913 218.61 115.422C218.61 115.932 218.61 116.441 218.78 116.951C218.95 117.97 219.12 119.158 219.289 120.347C219.459 121.536 219.799 122.725 220.138 123.913C220.308 124.423 220.648 125.102 220.818 125.612C220.988 126.121 221.327 126.801 221.667 127.31C222.856 129.518 224.724 131.386 227.611 132.405C228.46 131.216 229.139 130.197 229.479 129.008Z" fill="url(#paint26_linear)"/>
<path d="M234.744 104.214C234.404 105.572 234.404 106.761 234.574 107.95C234.744 108.629 234.913 109.139 235.083 109.818C235.253 110.497 235.593 111.007 235.932 111.686C238.819 111.346 241.197 109.648 242.556 107.101C243.235 105.912 243.914 104.553 244.254 103.025C244.593 101.496 244.763 99.9679 244.933 98.4395C244.933 97.5904 245.103 96.9111 245.103 96.2318C245.103 95.5525 245.103 94.7033 244.933 94.024C244.763 92.6654 244.594 91.3068 244.594 90.118C244.084 87.9103 243.744 86.5516 243.744 86.5516C243.744 86.5516 242.895 87.7404 241.876 89.4387C241.367 90.2878 240.687 91.3068 240.008 92.4956C239.329 93.6844 238.65 94.8731 237.97 96.2318C237.291 97.4205 236.612 98.7792 236.102 100.138C235.423 101.666 234.913 103.025 234.744 104.214Z" fill="url(#paint27_linear)"/>
<path d="M229.139 103.874C228.63 102.685 227.781 101.666 226.932 100.647C226.422 100.138 226.082 99.628 225.573 99.2884C225.063 98.7789 224.554 98.4392 224.044 98.0996C221.837 96.5711 219.629 95.3824 217.761 94.703C215.893 94.0237 214.704 93.6841 214.704 93.6841C214.704 93.6841 215.044 94.703 215.553 96.2315C215.723 97.0806 216.063 97.9298 216.572 98.7789C216.742 99.2884 216.912 99.7978 217.251 100.307C217.421 100.817 217.761 101.326 217.931 101.836C218.44 102.855 218.95 103.874 219.799 104.893C220.478 105.912 221.157 106.931 222.007 107.78C223.875 109.478 225.913 110.837 228.969 111.176C229.309 110.667 229.649 109.987 229.819 109.308C229.988 108.629 229.988 108.119 230.158 107.44C229.819 106.251 229.649 105.062 229.139 103.874Z" fill="url(#paint28_linear)"/>
<path d="M233.215 64.1344C233.215 64.1344 232.706 65.493 232.027 67.5309C231.347 69.5689 230.498 72.2861 229.819 75.0033C229.479 76.3619 229.139 77.8904 228.97 79.249C228.8 80.6076 228.63 81.9662 228.8 83.3248C228.8 84.0041 228.97 84.6834 228.97 85.1929C229.139 85.8722 229.309 86.3817 229.479 87.061C229.649 87.5705 229.989 88.2498 230.498 88.7593C230.838 89.2688 231.347 89.7782 231.857 90.2877C233.215 89.7782 234.404 88.9291 235.253 87.9102C236.102 86.8912 236.782 85.7024 237.121 84.3438C237.291 83.6645 237.461 82.9852 237.631 82.3059C237.801 81.6266 237.801 80.7774 237.801 80.0981C237.801 78.5697 237.631 77.0412 237.461 75.5128C236.782 72.6257 235.933 69.7387 234.914 67.7008C234.404 66.6818 234.064 65.8327 233.725 65.3232C233.385 64.4741 233.215 64.1344 233.215 64.1344Z" fill="url(#paint29_linear)"/>
<path d="M224.214 85.1929C223.875 84.6834 223.535 84.1739 223.195 83.6644C222.346 82.6455 221.327 81.7964 220.308 81.117C219.289 80.4377 217.931 79.7584 216.742 79.2489C216.063 79.0791 215.553 78.7395 214.874 78.5696C214.194 78.3998 213.685 78.23 213.006 78.0602C211.817 77.7205 210.628 77.5507 209.779 77.5507C208.76 77.3809 208.081 77.3809 207.571 77.3809C207.062 77.3809 206.722 77.3809 206.722 77.3809C206.722 77.3809 206.892 77.5507 207.062 78.0602C207.232 78.3998 207.571 79.0791 208.081 79.7584C208.25 80.0981 208.59 80.4377 208.76 80.7774C208.93 80.9472 209.1 81.117 209.269 81.2869C209.439 81.4567 209.609 81.6265 209.779 81.9662C210.458 82.8153 211.138 83.6644 211.817 84.5136C212.496 85.3627 213.345 86.2118 214.364 87.061C214.534 87.2308 214.874 87.4006 215.044 87.5705C215.213 87.7403 215.553 87.9101 215.723 88.0799C216.232 88.4196 216.742 88.7592 217.251 89.0989C218.27 89.7782 219.459 90.1179 220.818 90.4575C222.006 90.7972 223.365 90.7972 224.894 90.6273C225.063 89.948 225.233 89.2687 225.233 88.7592C225.233 88.0799 225.233 87.5705 225.063 86.8911C224.724 86.2118 224.554 85.7024 224.214 85.1929Z" fill="url(#paint30_linear)"/>
<path d="M222.346 70.4181C224.724 68.55 225.743 66.1724 226.082 63.2854C226.082 61.9267 225.913 60.3983 225.743 59.0397C225.403 57.5112 224.894 56.1526 224.384 54.794C223.875 53.4354 223.026 52.0768 222.346 50.888C221.667 49.6992 220.988 48.6803 220.308 47.8311C219.629 46.982 219.12 46.3027 218.61 45.7932C218.27 45.2837 217.931 45.1139 217.931 45.1139C217.931 45.1139 217.761 46.4725 217.421 48.5104C217.251 49.5294 217.251 50.7182 217.082 52.0768C217.082 52.7561 216.912 53.4354 216.912 54.1147C216.912 54.794 216.912 55.4733 216.742 56.3225C216.742 59.2095 216.912 62.0966 217.591 64.644C217.931 65.8328 218.44 67.0215 219.289 68.0405C220.138 68.8896 221.157 69.7388 222.346 70.4181Z" fill="url(#paint31_linear)"/>
<path d="M212.666 65.4929C210.628 63.9645 207.911 63.1154 205.364 62.6059C204.005 62.4361 202.816 62.2662 201.458 62.2662C200.269 62.2662 199.08 62.2662 198.231 62.4361C196.363 62.6059 195.004 62.9455 195.004 62.9455C195.004 62.9455 195.174 63.1154 195.514 63.455C195.853 63.7947 196.363 64.3042 196.872 64.8136C197.382 65.3231 198.231 66.0024 198.91 66.6817C199.759 67.361 200.608 68.0403 201.627 68.7197C202.646 69.399 203.665 70.0783 204.684 70.5877C205.703 71.2671 206.892 71.6067 208.081 71.9464C210.458 72.6257 213.006 72.7955 215.723 71.6067C215.723 70.2481 215.553 69.0593 215.044 67.8705C214.534 67.1912 213.685 66.1723 212.666 65.4929Z" fill="url(#paint32_linear)"/>
<path d="M198.225 136.356C198.225 139.931 195.787 144.482 192.78 146.432L154.832 171.704C151.825 173.655 146.949 173.655 144.024 171.704L106.156 146.432C103.15 144.482 100.712 139.931 100.712 136.356V100.601C100.712 97.0258 103.15 92.4752 106.156 90.5249L144.024 65.1716C147.031 63.2213 151.906 63.2213 154.913 65.1716L192.862 90.4437C195.868 92.3939 198.306 96.9445 198.306 100.52V136.356H198.225Z" fill="#F38844"/>
<path d="M136.467 107.103H162.47V111.978H136.467V107.103ZM133.216 115.229H165.721V120.104H133.216V115.229ZM129.153 123.355H169.784V128.23H129.153V123.355ZM149.469 88.4126C166.046 88.4126 179.535 101.902 179.535 118.479C179.535 135.056 166.046 148.546 149.469 148.546C132.891 148.546 119.402 135.056 119.402 118.479C119.402 101.902 132.891 88.4126 149.469 88.4126ZM149.469 85.9747C131.51 85.9747 116.964 100.52 116.964 118.479C116.964 136.438 131.51 150.983 149.469 150.983C167.427 150.983 181.973 136.438 181.973 118.479C181.973 100.52 167.427 85.9747 149.469 85.9747Z" fill="white"/>
<path opacity="0.08" d="M192.78 90.5249L154.913 65.1716C153.45 64.1964 151.5 63.7089 149.468 63.7089V173.248C151.419 173.248 153.369 172.761 154.913 171.786L192.862 146.514C195.868 144.563 198.306 140.013 198.306 136.437V100.601C198.225 97.0258 195.787 92.4752 192.78 90.5249V90.5249Z" fill="black"/>
<path d="M149.468 66.9593C150.85 66.9593 152.15 67.2843 153.044 67.9344L190.993 93.2065C193.105 94.588 194.974 98.0822 194.974 100.601V136.356C194.974 138.875 193.105 142.369 190.993 143.751L153.044 169.023C152.15 169.592 150.85 169.998 149.468 169.998C148.087 169.998 146.787 169.673 145.893 169.023L107.944 143.751C105.831 142.369 103.962 138.875 103.962 136.356V100.601C103.962 98.0822 105.831 94.588 107.944 93.2065L145.893 67.9344C146.787 67.2843 148.087 66.9593 149.468 66.9593V66.9593ZM149.468 63.7089C147.518 63.7089 145.568 64.1964 144.024 65.1716L106.156 90.5249C103.15 92.4752 100.712 97.0258 100.712 100.601V136.356C100.712 139.931 103.15 144.482 106.156 146.432L144.105 171.704C145.568 172.68 147.518 173.167 149.55 173.167C151.581 173.167 153.45 172.68 154.994 171.704L192.943 146.432C195.95 144.482 198.387 139.931 198.387 136.356V100.601C198.387 97.0258 195.95 92.4752 192.943 90.5249L154.913 65.1716C153.369 64.1964 151.419 63.7089 149.468 63.7089V63.7089Z" fill="#F38844"/>
<path d="M65.8478 267V246.21H78.5378V248.7H68.7578V254.88H77.4578V257.31H68.7578V264.51H79.2878V267H65.8478ZM88.3864 267.3C86.6664 267.26 85.4464 266.89 84.7264 266.19C84.0064 265.49 83.6464 264.4 83.6464 262.92V244.2L86.4364 243.72V262.47C86.4364 262.93 86.4764 263.31 86.5564 263.61C86.6364 263.91 86.7664 264.15 86.9464 264.33C87.1264 264.51 87.3664 264.65 87.6664 264.75C87.9664 264.83 88.3364 264.9 88.7764 264.96L88.3864 267.3ZM95.5996 267H92.8096V251.4H95.5996V267ZM94.1896 248.58C93.6896 248.58 93.2596 248.42 92.8996 248.1C92.5596 247.76 92.3896 247.31 92.3896 246.75C92.3896 246.19 92.5596 245.75 92.8996 245.43C93.2596 245.09 93.6896 244.92 94.1896 244.92C94.6896 244.92 95.1096 245.09 95.4496 245.43C95.8096 245.75 95.9896 246.19 95.9896 246.75C95.9896 247.31 95.8096 247.76 95.4496 248.1C95.1096 248.42 94.6896 248.58 94.1896 248.58ZM103.907 251.4H109.817V253.74H103.907V260.94C103.907 261.72 103.967 262.37 104.087 262.89C104.207 263.39 104.387 263.79 104.627 264.09C104.867 264.37 105.167 264.57 105.527 264.69C105.887 264.81 106.307 264.87 106.787 264.87C107.627 264.87 108.297 264.78 108.797 264.6C109.317 264.4 109.677 264.26 109.877 264.18L110.417 266.49C110.137 266.63 109.647 266.8 108.947 267C108.247 267.22 107.447 267.33 106.547 267.33C105.487 267.33 104.607 267.2 103.907 266.94C103.227 266.66 102.677 266.25 102.257 265.71C101.837 265.17 101.537 264.51 101.357 263.73C101.197 262.93 101.117 262.01 101.117 260.97V247.05L103.907 246.57V251.4ZM113.105 259.23C113.105 257.85 113.305 256.65 113.705 255.63C114.105 254.59 114.635 253.73 115.295 253.05C115.955 252.37 116.715 251.86 117.575 251.52C118.435 251.18 119.315 251.01 120.215 251.01C122.315 251.01 123.925 251.67 125.045 252.99C126.165 254.29 126.725 256.28 126.725 258.96C126.725 259.08 126.725 259.24 126.725 259.44C126.725 259.62 126.715 259.79 126.695 259.95H116.015C116.135 261.57 116.605 262.8 117.425 263.64C118.245 264.48 119.525 264.9 121.265 264.9C122.245 264.9 123.065 264.82 123.725 264.66C124.405 264.48 124.915 264.31 125.255 264.15L125.645 266.49C125.305 266.67 124.705 266.86 123.845 267.06C123.005 267.26 122.045 267.36 120.965 267.36C119.605 267.36 118.425 267.16 117.425 266.76C116.445 266.34 115.635 265.77 114.995 265.05C114.355 264.33 113.875 263.48 113.555 262.5C113.255 261.5 113.105 260.41 113.105 259.23ZM123.815 257.7C123.835 256.44 123.515 255.41 122.855 254.61C122.215 253.79 121.325 253.38 120.185 253.38C119.545 253.38 118.975 253.51 118.475 253.77C117.995 254.01 117.585 254.33 117.245 254.73C116.905 255.13 116.635 255.59 116.435 256.11C116.255 256.63 116.135 257.16 116.075 257.7H123.815ZM153.546 267C153.206 266.1 152.886 265.22 152.586 264.36C152.286 263.48 151.976 262.59 151.656 261.69H142.236L140.346 267H137.316C138.116 264.8 138.866 262.77 139.566 260.91C140.266 259.03 140.946 257.25 141.606 255.57C142.286 253.89 142.956 252.29 143.616 250.77C144.276 249.23 144.966 247.71 145.686 246.21H148.356C149.076 247.71 149.766 249.23 150.426 250.77C151.086 252.29 151.746 253.89 152.406 255.57C153.086 257.25 153.776 259.03 154.476 260.91C155.176 262.77 155.926 264.8 156.726 267H153.546ZM150.816 259.29C150.176 257.55 149.536 255.87 148.896 254.25C148.276 252.61 147.626 251.04 146.946 249.54C146.246 251.04 145.576 252.61 144.936 254.25C144.316 255.87 143.696 257.55 143.076 259.29H150.816ZM172.249 266.55C171.609 266.71 170.759 266.88 169.699 267.06C168.659 267.24 167.449 267.33 166.069 267.33C164.869 267.33 163.859 267.16 163.039 266.82C162.219 266.46 161.559 265.96 161.059 265.32C160.559 264.68 160.199 263.93 159.979 263.07C159.759 262.19 159.649 261.22 159.649 260.16V251.4H162.439V259.56C162.439 261.46 162.739 262.82 163.339 263.64C163.939 264.46 164.949 264.87 166.369 264.87C166.669 264.87 166.979 264.86 167.299 264.84C167.619 264.82 167.919 264.8 168.199 264.78C168.479 264.74 168.729 264.71 168.949 264.69C169.189 264.65 169.359 264.61 169.459 264.57V251.4H172.249V266.55ZM180.566 251.4H186.476V253.74H180.566V260.94C180.566 261.72 180.626 262.37 180.746 262.89C180.866 263.39 181.046 263.79 181.286 264.09C181.526 264.37 181.826 264.57 182.186 264.69C182.546 264.81 182.966 264.87 183.446 264.87C184.286 264.87 184.956 264.78 185.456 264.6C185.976 264.4 186.336 264.26 186.536 264.18L187.076 266.49C186.796 266.63 186.306 266.8 185.606 267C184.906 267.22 184.106 267.33 183.206 267.33C182.146 267.33 181.266 267.2 180.566 266.94C179.886 266.66 179.336 266.25 178.916 265.71C178.496 265.17 178.196 264.51 178.016 263.73C177.856 262.93 177.776 262.01 177.776 260.97V247.05L180.566 246.57V251.4ZM190.926 267V244.2L193.716 243.72V251.7C194.236 251.5 194.786 251.35 195.366 251.25C195.966 251.13 196.556 251.07 197.136 251.07C198.376 251.07 199.406 251.25 200.226 251.61C201.046 251.95 201.696 252.44 202.176 253.08C202.676 253.7 203.026 254.45 203.226 255.33C203.426 256.21 203.526 257.18 203.526 258.24V267H200.736V258.84C200.736 257.88 200.666 257.06 200.526 256.38C200.406 255.7 200.196 255.15 199.896 254.73C199.596 254.31 199.196 254.01 198.696 253.83C198.196 253.63 197.576 253.53 196.836 253.53C196.536 253.53 196.226 253.55 195.906 253.59C195.586 253.63 195.276 253.68 194.976 253.74C194.696 253.78 194.436 253.83 194.196 253.89C193.976 253.95 193.816 254 193.716 254.04V267H190.926ZM222.735 259.2C222.735 260.44 222.555 261.56 222.195 262.56C221.835 263.56 221.325 264.42 220.665 265.14C220.025 265.86 219.255 266.42 218.355 266.82C217.455 267.2 216.475 267.39 215.415 267.39C214.355 267.39 213.375 267.2 212.475 266.82C211.575 266.42 210.795 265.86 210.135 265.14C209.495 264.42 208.995 263.56 208.635 262.56C208.275 261.56 208.095 260.44 208.095 259.2C208.095 257.98 208.275 256.87 208.635 255.87C208.995 254.85 209.495 253.98 210.135 253.26C210.795 252.54 211.575 251.99 212.475 251.61C213.375 251.21 214.355 251.01 215.415 251.01C216.475 251.01 217.455 251.21 218.355 251.61C219.255 251.99 220.025 252.54 220.665 253.26C221.325 253.98 221.835 254.85 222.195 255.87C222.555 256.87 222.735 257.98 222.735 259.2ZM219.825 259.2C219.825 257.44 219.425 256.05 218.625 255.03C217.845 253.99 216.775 253.47 215.415 253.47C214.055 253.47 212.975 253.99 212.175 255.03C211.395 256.05 211.005 257.44 211.005 259.2C211.005 260.96 211.395 262.36 212.175 263.4C212.975 264.42 214.055 264.93 215.415 264.93C216.775 264.93 217.845 264.42 218.625 263.4C219.425 262.36 219.825 260.96 219.825 259.2ZM233.32 251.07C233.56 251.07 233.83 251.09 234.13 251.13C234.45 251.15 234.76 251.19 235.06 251.25C235.36 251.29 235.63 251.34 235.87 251.4C236.13 251.44 236.32 251.48 236.44 251.52L235.96 253.95C235.74 253.87 235.37 253.78 234.85 253.68C234.35 253.56 233.7 253.5 232.9 253.5C232.38 253.5 231.86 253.56 231.34 253.68C230.84 253.78 230.51 253.85 230.35 253.89V267H227.56V252.06C228.22 251.82 229.04 251.6 230.02 251.4C231 251.18 232.1 251.07 233.32 251.07Z" fill="#F38844"/>
<defs>
<linearGradient id="paint0_linear" x1="108.477" y1="194.868" x2="108.477" y2="203.817" gradientUnits="userSpaceOnUse">
<stop stop-color="#F38844"/>
<stop offset="1" stop-color="#F38844" stop-opacity="0.51"/>
</linearGradient>
<linearGradient id="paint1_linear" x1="118.412" y1="174.861" x2="118.412" y2="193.474" gradientUnits="userSpaceOnUse">
<stop stop-color="#F38844"/>
<stop offset="1" stop-color="#F38844" stop-opacity="0.51"/>
</linearGradient>
<linearGradient id="paint2_linear" x1="86.5697" y1="182.258" x2="86.5697" y2="191.696" gradientUnits="userSpaceOnUse">
<stop stop-color="#F38844"/>
<stop offset="1" stop-color="#F38844" stop-opacity="0.51"/>
</linearGradient>
<linearGradient id="paint3_linear" x1="100.42" y1="162.634" x2="100.42" y2="183.707" gradientUnits="userSpaceOnUse">
<stop stop-color="#F38844"/>
<stop offset="1" stop-color="#F38844" stop-opacity="0.51"/>
</linearGradient>
<linearGradient id="paint4_linear" x1="70.8608" y1="158.728" x2="70.8608" y2="175.181" gradientUnits="userSpaceOnUse">
<stop stop-color="#F38844"/>
<stop offset="1" stop-color="#F38844" stop-opacity="0.51"/>
</linearGradient>
<linearGradient id="paint5_linear" x1="86.5924" y1="147.18" x2="86.5924" y2="169.936" gradientUnits="userSpaceOnUse">
<stop stop-color="#F38844"/>
<stop offset="1" stop-color="#F38844" stop-opacity="0.51"/>
</linearGradient>
<linearGradient id="paint6_linear" x1="62.0857" y1="135.292" x2="62.0857" y2="154.342" gradientUnits="userSpaceOnUse">
<stop stop-color="#F38844"/>
<stop offset="1" stop-color="#F38844" stop-opacity="0.51"/>
</linearGradient>
<linearGradient id="paint7_linear" x1="79.2672" y1="128.499" x2="79.2672" y2="151.425" gradientUnits="userSpaceOnUse">
<stop stop-color="#F38844"/>
<stop offset="1" stop-color="#F38844" stop-opacity="0.51"/>
</linearGradient>
<linearGradient id="paint8_linear" x1="58.4953" y1="110.157" x2="58.4953" y2="132.593" gradientUnits="userSpaceOnUse">
<stop stop-color="#F38844"/>
<stop offset="1" stop-color="#F38844" stop-opacity="0.51"/>
</linearGradient>
<linearGradient id="paint9_linear" x1="75.7858" y1="109.818" x2="75.7858" y2="130.876" gradientUnits="userSpaceOnUse">
<stop stop-color="#F38844"/>
<stop offset="1" stop-color="#F38844" stop-opacity="0.51"/>
</linearGradient>
<linearGradient id="paint10_linear" x1="59.8777" y1="85.5325" x2="59.8777" y2="110.327" gradientUnits="userSpaceOnUse">
<stop stop-color="#F38844"/>
<stop offset="1" stop-color="#F38844" stop-opacity="0.51"/>
</linearGradient>
<linearGradient id="paint11_linear" x1="77.484" y1="92.3257" x2="77.484" y2="109.818" gradientUnits="userSpaceOnUse">
<stop stop-color="#F38844"/>
<stop offset="1" stop-color="#F38844" stop-opacity="0.51"/>
</linearGradient>
<linearGradient id="paint12_linear" x1="66.4806" y1="62.606" x2="66.4806" y2="88.5894" gradientUnits="userSpaceOnUse">
<stop stop-color="#F38844"/>
<stop offset="1" stop-color="#F38844" stop-opacity="0.51"/>
</linearGradient>
<linearGradient id="paint13_linear" x1="83.7676" y1="75.8523" x2="83.7676" y2="89.2103" gradientUnits="userSpaceOnUse">
<stop stop-color="#F38844"/>
<stop offset="1" stop-color="#F38844" stop-opacity="0.51"/>
</linearGradient>
<linearGradient id="paint14_linear" x1="78.13" y1="43.5852" x2="78.13" y2="69.0592" gradientUnits="userSpaceOnUse">
<stop stop-color="#F38844"/>
<stop offset="1" stop-color="#F38844" stop-opacity="0.51"/>
</linearGradient>
<linearGradient id="paint15_linear" x1="94.2749" y1="60.9076" x2="94.2749" y2="71.4595" gradientUnits="userSpaceOnUse">
<stop stop-color="#F38844"/>
<stop offset="1" stop-color="#F38844" stop-opacity="0.51"/>
</linearGradient>
<linearGradient id="paint16_linear" x1="149.675" y1="39" x2="149.675" y2="218.693" gradientUnits="userSpaceOnUse">
<stop stop-color="#F38844"/>
<stop offset="1" stop-color="#F38844" stop-opacity="0.51"/>
</linearGradient>
<linearGradient id="paint17_linear" x1="191.183" y1="196.396" x2="191.183" y2="205.369" gradientUnits="userSpaceOnUse">
<stop stop-color="#F38844"/>
<stop offset="1" stop-color="#F38844" stop-opacity="0.51"/>
</linearGradient>
<linearGradient id="paint18_linear" x1="181.418" y1="176.05" x2="181.418" y2="194.731" gradientUnits="userSpaceOnUse">
<stop stop-color="#F38844"/>
<stop offset="1" stop-color="#F38844" stop-opacity="0.51"/>
</linearGradient>
<linearGradient id="paint19_linear" x1="213.091" y1="183.617" x2="213.091" y2="193.054" gradientUnits="userSpaceOnUse">
<stop stop-color="#F38844"/>
<stop offset="1" stop-color="#F38844" stop-opacity="0.51"/>
</linearGradient>
<linearGradient id="paint20_linear" x1="199.332" y1="164.162" x2="199.332" y2="185.065" gradientUnits="userSpaceOnUse">
<stop stop-color="#F38844"/>
<stop offset="1" stop-color="#F38844" stop-opacity="0.51"/>
</linearGradient>
<linearGradient id="paint21_linear" x1="228.545" y1="160.256" x2="228.545" y2="176.71" gradientUnits="userSpaceOnUse">
<stop stop-color="#F38844"/>
<stop offset="1" stop-color="#F38844" stop-opacity="0.51"/>
</linearGradient>
<linearGradient id="paint22_linear" x1="212.751" y1="148.878" x2="212.751" y2="171.635" gradientUnits="userSpaceOnUse">
<stop stop-color="#F38844"/>
<stop offset="1" stop-color="#F38844" stop-opacity="0.51"/>
</linearGradient>
<linearGradient id="paint23_linear" x1="237.623" y1="136.481" x2="237.623" y2="155.532" gradientUnits="userSpaceOnUse">
<stop stop-color="#F38844"/>
<stop offset="1" stop-color="#F38844" stop-opacity="0.51"/>
</linearGradient>
<linearGradient id="paint24_linear" x1="220.648" y1="130.197" x2="220.648" y2="152.954" gradientUnits="userSpaceOnUse">
<stop stop-color="#F38844"/>
<stop offset="1" stop-color="#F38844" stop-opacity="0.51"/>
</linearGradient>
<linearGradient id="paint25_linear" x1="241.42" y1="111.516" x2="241.42" y2="134.161" gradientUnits="userSpaceOnUse">
<stop stop-color="#F38844"/>
<stop offset="1" stop-color="#F38844" stop-opacity="0.51"/>
</linearGradient>
<linearGradient id="paint26_linear" x1="224.044" y1="111.346" x2="224.044" y2="132.405" gradientUnits="userSpaceOnUse">
<stop stop-color="#F38844"/>
<stop offset="1" stop-color="#F38844" stop-opacity="0.51"/>
</linearGradient>
<linearGradient id="paint27_linear" x1="239.783" y1="86.5516" x2="239.783" y2="111.686" gradientUnits="userSpaceOnUse">
<stop stop-color="#F38844"/>
<stop offset="1" stop-color="#F38844" stop-opacity="0.51"/>
</linearGradient>
<linearGradient id="paint28_linear" x1="222.431" y1="93.6841" x2="222.431" y2="111.176" gradientUnits="userSpaceOnUse">
<stop stop-color="#F38844"/>
<stop offset="1" stop-color="#F38844" stop-opacity="0.51"/>
</linearGradient>
<linearGradient id="paint29_linear" x1="233.265" y1="64.1344" x2="233.265" y2="90.2877" gradientUnits="userSpaceOnUse">
<stop stop-color="#F38844"/>
<stop offset="1" stop-color="#F38844" stop-opacity="0.51"/>
</linearGradient>
<linearGradient id="paint30_linear" x1="215.978" y1="77.3809" x2="215.978" y2="90.7389" gradientUnits="userSpaceOnUse">
<stop stop-color="#F38844"/>
<stop offset="1" stop-color="#F38844" stop-opacity="0.51"/>
</linearGradient>
<linearGradient id="paint31_linear" x1="221.412" y1="45.1139" x2="221.412" y2="70.4181" gradientUnits="userSpaceOnUse">
<stop stop-color="#F38844"/>
<stop offset="1" stop-color="#F38844" stop-opacity="0.51"/>
</linearGradient>
<linearGradient id="paint32_linear" x1="205.364" y1="62.2662" x2="205.364" y2="72.4785" gradientUnits="userSpaceOnUse">
<stop stop-color="#F38844"/>
<stop offset="1" stop-color="#F38844" stop-opacity="0.51"/>
</linearGradient>
</defs>
</svg>
