<svg width="80" height="80" viewBox="0 0 80 80" fill="none" xmlns="http://www.w3.org/2000/svg">
<circle cx="40" cy="40" r="37.5" stroke="white" stroke-width="3"/>
<path d="M54.0041 45.1814C55.556 43.1282 56.8751 41.0749 57.9614 39.1109C58.8925 37.3254 58.9701 35.0936 58.0389 33.3082L53.3834 24.0238C51.6763 20.6315 48.2622 20.0066 45.7793 22.6848C41.8996 26.8806 36.1578 30.8085 27.4674 32.4155C24.5188 32.9511 21.9583 35.0936 20.484 38.0396C17.4579 44.1102 12.3368 54.198 9.38823 60.1792C8.30193 62.3218 9.62101 64.9107 11.7936 64.9107H18.8545C21.2599 64.9107 23.6653 64.6429 25.9155 63.9287C37.7096 60.4471 47.2535 54.1087 54.0041 45.1814Z" fill="white"/>
<path d="M31.0366 26.1662C39.1839 23.488 43.6067 18.5781 46.0121 14.4715C46.8656 13.0432 46.8656 11.1684 46.0897 9.6508L43.8395 5.27645C42.2876 2.24118 38.408 2.24118 36.9337 5.27645L28.3985 22.3275C27.3898 24.2915 29.0968 26.8804 31.0366 26.1662Z" fill="white"/>
<path d="M70.4539 58.0366L66.0311 49.1986C64.2465 45.717 59.9789 45.2707 57.7287 48.3059L57.6511 48.3952C54.237 52.9481 50.435 56.6083 46.3225 59.6435C44.1499 61.2504 45.1586 64.9999 47.6416 64.9999H66.9622C70.0659 64.9999 72.0058 61.1612 70.4539 58.0366Z" fill="white"/>
</svg>
